<?xml version="1.0" standalone="no"?>
<!DOCTYPE svg PUBLIC "-//W3C//DTD SVG 20010904//EN"
 "http://www.w3.org/TR/2001/REC-SVG-20010904/DTD/svg10.dtd">
<svg version="1.0" xmlns="http://www.w3.org/2000/svg"
 width="866.000000pt" height="650.000000pt" viewBox="0 0 866.000000 650.000000"
 preserveAspectRatio="xMidYMid meet">

<g transform="translate(0.000000,650.000000) scale(0.100000,-0.100000)"
fill="#000000" stroke="none">
<path d="M1613 6125 c4 -9 258 -447 564 -971 l556 -954 1061 1 1061 0 76 -141
c42 -78 81 -146 86 -151 9 -9 273 429 273 452 0 5 -39 77 -87 159 l-88 150
-1062 0 -1062 0 -280 493 -281 492 108 3 c59 2 409 0 778 -3 l670 -7 105 -167
c57 -91 105 -171 107 -177 2 -6 -66 -130 -151 -275 -85 -145 -154 -265 -153
-265 1 -1 123 -4 273 -8 l271 -6 138 242 c75 134 146 259 157 279 l21 36 -244
412 -244 411 -1086 0 c-598 0 -1196 3 -1330 7 -231 6 -243 5 -237 -12z"/>
<path d="M4580 6125 c0 -2 57 -98 127 -212 69 -114 133 -220 142 -235 l16 -28
677 -2 678 -3 -14 -25 c-7 -14 -61 -108 -121 -210 -192 -331 -386 -663 -455
-780 -37 -63 -99 -169 -137 -235 -186 -320 -357 -612 -368 -630 -11 -18 -1
-39 97 -190 60 -94 124 -194 142 -224 l33 -53 31 51 c18 28 28 51 24 51 -4 0
-2 4 4 8 8 5 344 575 463 785 10 18 79 136 153 262 163 279 384 657 410 705
11 19 50 87 88 150 114 195 184 314 195 335 6 11 38 65 70 120 32 55 81 141
110 190 28 50 61 106 73 125 12 19 22 38 22 43 0 4 -553 7 -1230 7 -676 0
-1230 -2 -1230 -5z"/>
<path d="M3502 4068 c-10 -18 -41 -73 -67 -123 -26 -49 -60 -112 -75 -140
-201 -371 -194 -356 -178 -384 9 -14 204 -357 436 -761 231 -404 484 -847 562
-983 l142 -248 255 438 c609 1046 713 1226 713 1235 0 10 -255 446 -270 462
-10 10 -3 22 -252 -409 -365 -633 -442 -765 -447 -765 -8 1 -614 1051 -614
1064 0 8 291 539 350 639 2 4 -117 7 -266 7 l-269 0 -20 -32z"/>
<path d="M2724 1105 c-3 -6 -3 -174 -2 -375 l3 -365 93 -3 92 -3 0 376 c0 206
-3 375 -7 375 -88 6 -176 3 -179 -5z"/>
<path d="M1890 735 l0 -377 238 3 238 4 59 30 c116 59 160 157 159 350 -1 175
-43 274 -142 332 l-47 28 -252 3 -253 3 0 -376z m418 201 c52 -27 76 -91 76
-196 0 -65 -5 -96 -21 -132 -31 -67 -63 -81 -188 -82 l-100 -1 -3 205 c-1 112
0 211 3 218 8 21 189 12 233 -12z"/>
<path d="M3095 1096 c-43 -19 -94 -74 -105 -115 -15 -54 -12 -157 5 -198 20
-48 41 -70 90 -96 35 -18 63 -22 221 -27 199 -6 214 -10 214 -64 0 -70 -23
-76 -291 -76 l-219 0 0 -81 0 -81 268 4 c227 3 273 6 307 21 89 40 132 119
123 231 -7 79 -37 139 -90 173 -41 28 -45 28 -231 33 -172 5 -190 7 -203 24
-19 26 -18 71 2 90 13 14 50 16 250 16 l234 0 0 80 0 80 -272 0 c-203 -1 -281
-4 -303 -14z"/>
<path d="M3710 1035 l0 -74 118 -3 117 -3 3 -292 2 -293 90 0 90 0 2 293 3
292 118 3 117 3 0 74 0 75 -330 0 -330 0 0 -75z"/>
<path d="M4430 735 l0 -376 93 3 92 3 3 133 3 133 62 -3 62 -3 70 -130 70
-130 104 -3 c90 -2 103 -1 97 13 -3 8 -37 72 -76 141 -38 69 -70 127 -70 129
0 1 14 8 30 15 42 17 87 72 101 122 6 24 9 77 7 119 -6 99 -35 155 -98 187
-42 21 -55 22 -297 22 l-253 0 0 -375z m440 195 c22 -22 27 -78 10 -110 -15
-28 -65 -40 -166 -40 l-94 0 0 85 0 85 115 0 c102 0 117 -2 135 -20z"/>
<path d="M5170 735 l0 -376 93 3 92 3 3 373 2 372 -95 0 -95 0 0 -375z"/>
<path d="M5630 1101 c-115 -35 -180 -125 -202 -280 -22 -159 17 -308 102 -384
69 -62 97 -69 323 -74 l197 -5 0 80 0 80 -159 4 c-182 3 -198 9 -238 88 -19
36 -23 61 -23 130 0 69 4 94 23 130 40 79 56 85 238 88 l159 4 0 74 0 74 -197
-1 c-109 0 -209 -4 -223 -8z"/>
<path d="M6110 1035 l0 -74 118 -3 117 -3 3 -292 2 -293 90 0 90 0 2 293 3
292 118 3 117 3 0 74 0 75 -330 0 -330 0 0 -75z"/>
</g>
</svg>
